<svg width="255" height="134" viewBox="0 0 255 134" fill="none" xmlns="http://www.w3.org/2000/svg">
<path d="M37.4271 105.007C34.7006 111.075 30.363 115.533 23.6708 115.533C11.4016 115.533 0.867515 105.503 0.867515 94.4819C0.867515 89.2811 2.85041 85.69 8.42729 85.69C14.376 85.69 24.5383 89.9002 34.8246 94.9772C35.0724 92.1291 35.1963 88.7857 35.1963 84.947C35.1963 82.2228 35.1963 79.0032 35.0724 75.536C32.8417 75.9075 30.487 76.0313 28.2562 76.0313C10.0384 76.0313 0 67.6109 0 59.8096C0 58.3237 0.619654 57.0854 1.48717 57.0854C1.85896 57.0854 2.10682 57.333 2.60255 58.076C7.93157 66.2488 18.9614 71.6973 29.4955 71.6973C31.3545 71.6973 33.2134 71.5734 34.9485 71.3258C34.8245 62.9054 34.5767 54.1135 34.5767 48.5412C34.5767 21.4225 39.41 16.717 47.3416 16.717C56.7603 16.717 65.1876 24.7659 65.1876 40.4922C65.1876 57.7045 55.1492 69.0968 42.1365 73.6785C42.0125 80.2415 41.7647 89.4049 39.7818 97.5776C53.662 104.884 63.3286 112.437 72.7474 112.437C75.4738 112.437 76.961 112.066 79.3157 111.447C79.8114 111.323 80.4311 111.075 80.6789 111.075C81.1747 111.075 81.5464 111.323 81.5464 112.189C81.5464 115.533 76.5892 119.743 67.9141 119.743C59.3628 119.735 51.5552 113.048 37.4271 105.007ZM33.7092 102.902C21.8118 96.2155 10.658 90.024 7.06405 90.024C5.57689 90.024 5.20509 90.8908 5.20509 91.8815C5.20509 99.6827 15.2435 111.075 25.5297 111.075C29.4955 111.067 32.222 108.722 33.7092 102.902ZM42.1365 69.716C54.6535 65.2581 60.1064 53.9897 60.1064 41.8544C60.1064 28.8523 53.1663 20.6795 46.2262 20.6795C42.8801 20.6795 41.7647 23.8991 41.7647 35.5391C41.7647 41.359 42.1365 59.8096 42.1365 68.7254V69.716Z" fill="#CF0012"/>
<path d="M70.5166 38.6348C70.3927 37.768 70.3927 36.6535 70.3927 36.282C70.3927 33.0625 72.8713 30.7097 75.7217 30.7097C77.2089 30.7097 77.9525 31.4527 77.9525 34.6723C77.9525 36.7774 77.5807 42.102 77.3328 43.3403C76.8371 45.9407 75.3499 47.0552 73.9867 47.0552C72.4995 47.0552 71.5081 45.8169 70.5166 38.6348ZM78.2003 96.587C78.3243 98.5683 78.5721 99.6827 79.3157 99.6827C79.6875 99.6827 80.4311 99.1874 81.1747 98.1968C84.0251 94.4819 86.6276 90.024 88.6105 83.3372C89.3541 80.7368 89.478 80.3653 89.7259 80.3653C89.9738 80.3653 90.0977 80.8607 90.0977 82.4704C90.0977 85.5662 89.3541 89.0334 87.743 92.8721C84.6447 100.302 79.4397 105.379 75.5978 105.379C70.7645 105.379 70.7645 100.673 70.7645 64.1437C70.7645 57.4569 71.5081 54.7326 73.367 54.7326C76.0935 54.7326 78.4482 59.562 78.4482 63.7722C78.4482 66.7441 78.2003 69.9637 77.5807 73.3071C77.5807 78.0126 77.8286 89.5287 78.2003 96.587Z" fill="#CF0012"/>
<path d="M108.059 82.8419C108.431 77.1458 109.299 68.973 109.299 65.5058C109.299 61.0479 109.051 59.8096 108.183 59.8096C106.448 59.8096 102.359 72.6879 97.6492 96.7108C96.6578 101.664 96.162 105.874 93.9313 105.874C89.2219 105.874 88.1065 100.178 87.9826 92.7483L87.6108 63.6484C87.4869 54.8565 88.6023 51.8846 90.3373 51.8846C94.7988 51.8846 98.1449 60.0573 95.2945 71.6973L95.0467 96.3393C101.243 60.1811 106.324 54.1135 110.538 54.1135C113.512 54.1135 115.867 59.1905 115.867 69.4683C115.867 78.0126 113.884 90.5193 113.884 96.8347C113.884 98.1968 114.38 98.8159 115.247 98.8159C117.85 98.8159 121.32 95.7202 125.534 81.8513C125.905 80.613 126.153 80.1177 126.277 80.1177C126.525 80.1177 126.649 80.4892 126.649 81.9751C126.649 90.767 118.965 104.388 112.645 104.388C108.679 104.388 107.44 101.293 107.44 93.9866C107.44 92.0053 107.688 87.5474 108.059 82.8419Z" fill="#CF0012"/>
<path d="M148.461 85.1947C146.23 100.426 141.893 106.617 134.828 106.617C128.632 106.617 123.055 99.1874 123.055 82.8419C123.055 63.4007 129.747 55.7233 133.465 54.1135C128.508 41.4829 126.897 32.9386 126.897 21.5463C126.897 9.28721 131.234 0 137.183 0C143.38 0 150.32 23.2799 150.32 49.9033C150.32 60.9241 149.948 70.2113 149.328 77.7649C149.948 79.127 150.32 80.1177 150.32 81.4798C150.32 82.8419 149.576 84.204 148.461 85.1947ZM143.999 77.8887C140.281 69.8398 137.183 63.153 134.828 57.4569C132.846 60.3049 129.995 67.3632 129.995 80.7368C129.995 92.8721 132.97 102.159 137.183 102.159C140.901 102.159 143.256 94.8534 143.999 77.8887ZM144.371 67.8585V63.7722C144.371 51.5131 142.884 31.5765 138.67 16.2217C137.059 10.154 135.696 6.3153 134.705 4.2102C132.722 6.3153 130.615 12.2591 130.615 19.6889C130.615 34.0531 134.085 46.6837 144.371 67.8585Z" fill="#CF0012"/>
<path d="M193.076 81.9751C193.324 81.1083 193.448 80.4891 193.819 80.4891C194.191 80.4891 194.439 80.9845 194.439 82.0989C194.439 84.5755 193.572 88.6619 192.704 91.3861C189.234 102.407 186.136 107.236 181.674 107.236C178.328 107.236 175.85 103.769 174.61 89.9002C172.256 100.797 169.033 105.627 164.944 105.627C159.862 105.627 155.649 98.6921 155.649 86.1853C155.649 66.9917 161.721 55.8471 169.281 55.8471C171.636 55.8471 173.867 56.5901 175.354 57.8284C177.585 53.4943 179.939 51.7607 181.55 51.7607C182.542 51.7607 183.285 52.7513 183.285 54.9803C183.285 58.6952 182.17 65.6296 180.683 71.5734C181.055 92.2529 182.666 99.9304 184.896 99.9304C187.251 99.9221 190.349 91.1385 193.076 81.9751ZM163.085 82.5943C163.085 95.9678 165.191 99.3112 167.05 99.3112C169.281 99.3112 172.256 93.7389 174.114 81.7274C173.991 79.9938 173.867 75.9075 173.867 72.3164C173.867 68.1062 174.238 64.1437 174.61 61.1718C173.247 59.4381 171.388 58.819 170.025 58.819C166.183 58.819 163.085 65.0105 163.085 82.5943Z" fill="#CF0012"/>
<path d="M203.734 41.2352C203.734 50.0271 198.033 58.6952 194.811 58.6952C194.191 58.6952 193.819 58.3237 193.819 57.7046C193.819 56.9616 194.439 56.2186 194.811 55.4756C197.166 51.1416 198.157 48.5412 198.157 45.0739C198.157 42.102 196.794 40.3684 194.439 38.3872C192.952 37.1489 192.208 36.2821 192.208 35.0438C192.208 33.434 193.819 31.4527 196.546 31.4527C200.636 31.4527 203.734 34.9199 203.734 41.2352Z" fill="#CF0012"/>
<path d="M226.041 72.3164C224.802 72.3164 224.059 71.0781 224.059 69.2207C224.059 66.9917 225.794 64.5152 225.794 62.7815C225.794 60.0573 223.191 58.3237 218.73 58.3237C214.764 58.3237 212.657 60.5526 212.657 63.4007C212.657 66.2488 214.268 68.973 221.828 74.9168C229.016 80.613 231.742 85.1947 231.742 91.2623C231.742 100.178 226.785 106.617 218.358 106.617C208.815 106.617 205.717 98.0729 205.717 90.024C205.717 84.4517 208.071 79.6223 211.046 79.6223C212.285 79.6223 212.657 80.7368 212.657 82.0989C212.657 83.2134 212.285 85.9376 212.285 87.6713C212.285 97.33 215.259 102.778 220.341 102.778C222.819 102.778 225.298 100.797 225.298 95.7202C225.298 89.9002 222.695 85.9377 216.747 80.1177C209.683 73.307 208.567 70.2113 208.567 65.2581C208.567 58.819 212.781 52.8752 219.721 52.8752C225.298 52.8752 229.759 56.2186 229.759 63.4007C229.759 68.1062 227.9 72.3164 226.041 72.3164Z" fill="#CF0012"/>
<path d="M106.324 114.187V130.211H111.819V132.861H103.507V114.187H106.324Z" fill="#292424"/>
<path d="M126.509 128.329H118.511L116.429 132.861H113.388L122.634 113.015L131.557 132.861H128.467L126.509 128.329ZM125.36 125.679L122.592 119.33L119.684 125.679H125.36Z" fill="#292424"/>
<path d="M155.351 115.194V118.53C153.724 117.167 152.038 116.482 150.295 116.482C148.378 116.482 146.759 117.167 145.445 118.546C144.123 119.916 143.462 121.592 143.462 123.574C143.462 125.53 144.123 127.189 145.445 128.535C146.767 129.881 148.386 130.558 150.312 130.558C151.303 130.558 152.146 130.392 152.84 130.07C153.228 129.905 153.625 129.691 154.046 129.418C154.467 129.146 154.897 128.816 155.36 128.428V131.829C153.749 132.737 152.055 133.199 150.278 133.199C147.61 133.199 145.329 132.266 143.437 130.409C141.554 128.527 140.62 126.265 140.62 123.615C140.62 121.237 141.405 119.116 142.983 117.25C144.916 114.972 147.428 113.824 150.502 113.824C152.162 113.824 153.782 114.278 155.351 115.194Z" fill="#292424"/>
<path d="M170.33 128.329H162.333L160.251 132.861H157.21L166.456 113.015L175.379 132.861H172.289L170.33 128.329ZM169.182 125.679L166.414 119.33L163.506 125.679H169.182Z" fill="#292424"/>
<path d="M177.717 132.861V112.916L191.341 127.165V114.187H194.158V133.992L180.534 119.784V132.853H177.717V132.861Z" fill="#292424"/>
<path d="M203.792 116.837V132.861H200.974V116.837H196.678V114.187H208.08V116.837H203.792Z" fill="#292424"/>
<path d="M213.417 114.187V132.861H210.6V114.187H213.417Z" fill="#292424"/>
<path d="M217.903 132.861V112.916L231.527 127.165V114.187H234.345V133.992L220.721 119.784V132.853H217.903V132.861Z" fill="#292424"/>
<path d="M249.952 128.329H241.954L239.872 132.861H236.832L246.077 113.015L255 132.861H251.91L249.952 128.329ZM248.803 125.679L246.036 119.33L243.127 125.679H248.803Z" fill="#292424"/>
</svg>
