<svg width="172" height="92" viewBox="0 0 172 92" fill="none" xmlns="http://www.w3.org/2000/svg">
<path d="M25.1186 71.6959C23.2888 75.799 20.3777 78.8136 15.8863 78.8136C7.65202 78.8136 0.582219 72.0309 0.582219 64.5783C0.582219 61.0613 1.91301 58.633 5.65584 58.633C9.6482 58.633 16.4685 61.48 23.3719 64.9132C23.5383 62.9873 23.6215 60.7264 23.6215 58.1305C23.6215 56.2883 23.6215 54.1112 23.5383 51.7665C22.0412 52.0177 20.4608 52.1015 18.9637 52.1015C6.73711 52.1015 0 46.4074 0 41.1319C0 40.1271 0.415871 39.2897 0.99809 39.2897C1.24761 39.2897 1.41396 39.4572 1.74666 39.9596C5.32315 45.4863 12.7256 49.1707 19.7955 49.1707C21.0431 49.1707 22.2907 49.0869 23.4551 48.9195C23.3719 43.2254 23.2056 37.28 23.2056 33.5119C23.2056 15.1735 26.4494 11.9915 31.7725 11.9915C38.0938 11.9915 43.7496 17.4344 43.7496 28.069C43.7496 39.7084 37.0125 47.4122 28.2792 50.5105C28.196 54.9485 28.0297 61.1451 26.6989 66.6717C36.0144 71.6122 42.502 76.7202 48.8232 76.7202C50.6531 76.7202 51.6512 76.4689 53.2315 76.0503C53.5642 75.9665 53.98 75.7991 54.1464 75.7991C54.4791 75.7991 54.7286 75.9665 54.7286 76.5527C54.7286 78.8136 51.4016 81.6606 45.5794 81.6606C39.8404 81.6551 34.6005 77.1333 25.1186 71.6959ZM22.6234 70.2724C14.6387 65.7506 7.15298 61.5638 4.74093 61.5638C3.74284 61.5638 3.49332 62.1499 3.49332 62.8198C3.49332 68.0952 10.2304 75.7991 17.1339 75.7991C19.7955 75.7935 21.6253 74.208 22.6234 70.2724ZM28.2792 47.8309C36.6798 44.8164 40.3395 37.1963 40.3395 28.9901C40.3395 20.1977 35.6817 14.671 31.024 14.671C28.7783 14.671 28.0297 16.8482 28.0297 24.7195C28.0297 28.6551 28.2792 41.1319 28.2792 47.161V47.8309Z" fill="white"/>
<path d="M47.3261 26.813C47.2429 26.2269 47.2429 25.4732 47.2429 25.222C47.2429 23.0449 48.9064 21.4539 50.8194 21.4539C51.8175 21.4539 52.3165 21.9563 52.3165 24.1334C52.3165 25.557 52.067 29.1577 51.9007 29.995C51.568 31.7535 50.5699 32.5071 49.655 32.5071C48.6569 32.5071 47.9915 31.6698 47.3261 26.813ZM52.4829 66.0019C52.5661 67.3417 52.7324 68.0954 53.2315 68.0954C53.481 68.0954 53.98 67.7604 54.4791 67.0905C56.3921 64.5784 58.1387 61.5639 59.4695 57.0421C59.9686 55.2836 60.0517 55.0324 60.2181 55.0324C60.3844 55.0324 60.4676 55.3673 60.4676 56.4559C60.4676 58.5494 59.9686 60.894 58.8873 63.4898C56.8079 68.5141 53.3146 71.9473 50.7362 71.9473C47.4924 71.9473 47.4924 68.7653 47.4924 44.0628C47.4924 39.541 47.9915 37.6988 49.2391 37.6988C51.0689 37.6988 52.6492 40.9646 52.6492 43.8116C52.6492 45.8213 52.4829 47.9985 52.067 50.2594C52.067 53.4414 52.2334 61.2289 52.4829 66.0019Z" fill="white"/>
<path d="M72.5223 56.7073C72.7718 52.8554 73.354 47.3287 73.354 44.9841C73.354 41.9695 73.1877 41.1321 72.6054 41.1321C71.441 41.1321 68.6963 49.8408 65.5356 66.0859C64.8702 69.4354 64.5375 72.2825 63.0404 72.2825C59.8798 72.2825 59.1312 68.4305 59.048 63.4063L58.7985 43.728C58.7154 37.7826 59.4639 35.7729 60.6284 35.7729C63.6226 35.7729 65.8683 41.2996 63.9553 49.1709L63.789 65.8347C67.9477 41.3834 71.3578 37.2802 74.1857 37.2802C76.1819 37.2802 77.7622 40.7135 77.7622 47.6637C77.7622 53.4415 76.4314 61.899 76.4314 66.1696C76.4314 67.0907 76.7641 67.5094 77.3464 67.5094C79.093 67.5094 81.4219 65.416 84.2498 56.0374C84.4993 55.2 84.6657 54.8651 84.7489 54.8651C84.9152 54.8651 84.9984 55.1163 84.9984 56.1211C84.9984 62.0665 79.8416 71.2776 75.5997 71.2776C72.9381 71.2776 72.1064 69.1842 72.1064 64.2437C72.1064 62.9039 72.2727 59.8893 72.5223 56.7073Z" fill="white"/>
<path d="M99.6371 58.2981C98.14 68.5978 95.2289 72.7847 90.488 72.7847C86.3293 72.7847 82.5864 67.7604 82.5864 56.7071C82.5864 43.5604 87.0778 38.3687 89.5731 37.2801C86.2461 28.7389 85.1648 22.9611 85.1648 15.2573C85.1648 6.9673 88.0759 0.687012 92.0683 0.687012C96.227 0.687012 100.885 16.4296 100.885 34.4331C100.885 41.8857 100.635 48.166 100.219 53.2739C100.635 54.195 100.885 54.8649 100.885 55.786C100.885 56.7071 100.386 57.6283 99.6371 58.2981ZM96.6429 53.3577C94.1476 47.9147 92.0683 43.3929 90.488 39.541C89.1572 41.467 87.2442 46.24 87.2442 55.2836C87.2442 63.4899 89.2404 69.7701 92.0683 69.7701C94.5635 69.7701 96.1438 64.8296 96.6429 53.3577ZM96.8924 46.575V43.8116C96.8924 35.5217 95.8943 22.04 93.0664 11.6566C91.9851 7.55346 91.0702 4.9576 90.4048 3.53407C89.074 4.9576 87.66 8.97699 87.66 14.0012C87.66 23.7147 89.9889 32.2559 96.8924 46.575Z" fill="white"/>
<path d="M129.58 56.1209C129.746 55.5348 129.829 55.1161 130.079 55.1161C130.328 55.1161 130.495 55.451 130.495 56.2047C130.495 57.8794 129.912 60.6427 129.33 62.485C127.001 69.9376 124.922 73.2034 121.928 73.2034C119.682 73.2034 118.019 70.8587 117.187 61.4801C115.607 68.849 113.444 72.1148 110.699 72.1148C107.289 72.1148 104.461 67.4255 104.461 58.968C104.461 45.9887 108.537 38.4523 113.61 38.4523C115.191 38.4523 116.688 38.9547 117.686 39.7921C119.183 36.8613 120.763 35.689 121.845 35.689C122.51 35.689 123.009 36.3589 123.009 37.8661C123.009 40.3783 122.26 45.0676 121.262 49.087C121.512 63.0711 122.593 68.2629 124.09 68.2629C125.671 68.2573 127.75 62.3175 129.58 56.1209ZM109.452 56.5396C109.452 65.5833 110.866 67.8442 112.113 67.8442C113.61 67.8442 115.607 64.076 116.854 55.9534C116.771 54.7811 116.688 52.0178 116.688 49.5894C116.688 46.7423 116.937 44.0627 117.187 42.053C116.272 40.8807 115.024 40.462 114.109 40.462C111.531 40.462 109.452 44.6489 109.452 56.5396Z" fill="white"/>
<path d="M136.733 28.5714C136.733 34.5168 132.907 40.3784 130.744 40.3784C130.328 40.3784 130.079 40.1272 130.079 39.7085C130.079 39.2061 130.495 38.7037 130.744 38.2012C132.325 35.2704 132.99 33.5119 132.99 31.1672C132.99 29.1575 132.075 27.9852 130.495 26.6454C129.497 25.808 128.998 25.2218 128.998 24.3845C128.998 23.2959 130.079 21.9561 131.909 21.9561C134.653 21.9561 136.733 24.3007 136.733 28.5714Z" fill="white"/>
<path d="M151.704 49.5896C150.872 49.5896 150.373 48.7522 150.373 47.4961C150.373 45.9889 151.538 44.3141 151.538 43.1418C151.538 41.2996 149.791 40.1273 146.797 40.1273C144.135 40.1273 142.721 41.6346 142.721 43.5605C142.721 45.4865 143.802 47.3287 148.876 51.348C153.7 55.1999 155.53 58.2982 155.53 62.4013C155.53 68.4304 152.203 72.7847 146.547 72.7847C140.143 72.7847 138.063 67.0068 138.063 61.5639C138.063 57.7958 139.644 54.53 141.64 54.53C142.472 54.53 142.721 55.2837 142.721 56.2048C142.721 56.9584 142.472 58.8006 142.472 59.9729C142.472 66.5044 144.468 70.1888 147.878 70.1888C149.542 70.1888 151.205 68.849 151.205 65.4158C151.205 61.4802 149.458 58.8006 145.466 54.865C140.725 50.2595 139.976 48.166 139.976 44.8166C139.976 40.4622 142.804 36.4429 147.462 36.4429C151.205 36.4429 154.199 38.7038 154.199 43.5605C154.199 46.7425 152.952 49.5896 151.704 49.5896Z" fill="white"/>
<path d="M71.3579 77.9038V88.7391H75.0453V90.531H69.467V77.9038H71.3579Z" fill="white"/>
<path d="M84.9042 87.4663H79.5367L78.1394 90.531H76.0989L82.3037 77.1111L88.2922 90.531H86.2184L84.9042 87.4663ZM84.1335 85.6744L82.2759 81.3816L80.3241 85.6744H84.1335Z" fill="white"/>
<path d="M104.262 78.5846V80.84C103.169 79.9189 102.038 79.4555 100.868 79.4555C99.5817 79.4555 98.4949 79.9189 97.6132 80.8511C96.7261 81.7778 96.2825 82.9111 96.2825 84.2509C96.2825 85.5739 96.7261 86.696 97.6132 87.6059C98.5004 88.5159 99.5872 88.9736 100.879 88.9736C101.545 88.9736 102.11 88.862 102.576 88.6443C102.837 88.5326 103.103 88.3875 103.386 88.2032C103.668 88.019 103.957 87.7957 104.267 87.5333V89.8333C103.186 90.4474 102.049 90.76 100.857 90.76C99.066 90.76 97.5356 90.1292 96.2658 88.8731C95.0016 87.6003 94.375 86.0707 94.375 84.2788C94.375 82.671 94.9018 81.2363 95.9609 79.9747C97.2584 78.4339 98.944 77.658 101.007 77.658C102.121 77.658 103.208 77.965 104.262 78.5846Z" fill="white"/>
<path d="M114.315 87.4663H108.947L107.55 90.531H105.509L111.714 77.1111L117.702 90.531H115.629L114.315 87.4663ZM113.544 85.6744L111.686 81.3816L109.734 85.6744H113.544Z" fill="white"/>
<path d="M119.272 90.5314V77.0442L128.415 86.6795V77.9039H130.306V91.2961L121.163 81.6888V90.5258H119.272V90.5314Z" fill="white"/>
<path d="M136.772 79.6957V90.531H134.881V79.6957H131.997V77.9038H139.649V79.6957H136.772Z" fill="white"/>
<path d="M143.231 77.9038V90.531H141.341V77.9038H143.231Z" fill="white"/>
<path d="M146.242 90.5314V77.0442L155.386 86.6795V77.9039H157.277V91.2961L148.133 81.6888V90.5258H146.242V90.5314Z" fill="white"/>
<path d="M167.751 87.4663H162.384L160.986 90.531H158.946L165.151 77.1111L171.139 90.531H169.065L167.751 87.4663ZM166.98 85.6744L165.123 81.3816L163.171 85.6744H166.98Z" fill="white"/>
</svg>
