<svg fill="none" height="746" viewBox="0 0 857 746" width="857" xmlns="http://www.w3.org/2000/svg"><path d="m111.841 598.802-95.1159-172.063c-12.90041-23.402-26.04151-46.659-38.7494-70.158-3.7546-6.948-7.2203-13.992-10.5899-21.134-3.3695-7.141-.8183-12.304 3.514 9.651-.9597-3.474-2.1169-6.889-3.4658-10.23-2.4068-7.655-4.4446-15.408-6.1133-23.257-.7701-3.763-3.9471-29.24-2.3586-10.76 1.5885 18.481 0-9.65 0-13.413 0-6.949.2407-13.897.7701-20.845.6498-3.405 1.0042-6.86 1.059-10.326.7702 5.597-4.5247 23.113-.9145 7.093 3.0077-13.501 6.8172-26.81 11.4082-39.855 7.3647-20.941-10.4455 18.914.4332-.483 4.2841-7.623 8.2312-15.247 12.9485-22.629 1.9254-2.992 17.13636-24.126 5.82444-9.023-11.31194 15.102 4.8136-4.825 7.70175-7.865 4.97403-5.115 10.12456-10.02 15.45161-14.717 2.7437-2.364 5.5837-4.584 8.2793-6.9 9.6272-8.01-20.50581 13.945-5.9206 4.536 11.5497-7.629 23.6308-14.418 36.15-20.314 21.7092-9.65-21.8056 7.141.6257-.241 7.6055-2.509 15.3553-4.825 23.1533-6.418 6.6909-1.495 14.4408-1.592 20.8429-3.715-19.2544 6.273-18.5805 1.448-9.6272 1.158 3.5139 0 6.9797-.386 10.4455-.482 7.7977 0 15.6437 0 23.4417.53 3.418 0 6.884.821 10.301.917 11.698.483-23.057-4.825-7.027-1.11 13.527 2.72 26.846 6.397 39.856 11.002 3.129 1.158 6.45 2.846 9.627 3.763-23.249-6.851-15.451-7.093-9.001-3.57 7.605 4.197 15.307 8.058 22.672 12.738 5.824 3.667 11.216 8.54 17.184 11.918-24.068-13.655-7.749-6.08 0 1.206 5.151 4.825 10.109 9.988 14.826 15.344 2.407 2.654 4.573 5.501 6.98 8.203 13.141 14.813-13.286-20.893-2.84-3.812 13.285 21.761 25.416 44.005 37.787 66.345l108.353 196.044c24.983 45.26 88.667 66.587 134.155 38.601 45.488-27.985 65.32-85.935 38.509-134.475l-102.77-185.912c-13.238-24.126-25.561-48.878-40.338-71.894-45.97-71.5084-113.553-125.1636-195.336-149.5787-154.8044-46.2728-335.362 27.9857-405.159 176.3577-35.524 75.465-47.799 160.435-25.897 242.028 10.927 40.675 30.229 76.864 50.35 113.293l115.8631 210.327c24.9825 45.308 88.6662 66.587 134.1546 38.601 45.4883-27.986 65.3203-85.935 38.5083-134.476z" fill="#e1e1e1" fill-opacity=".5"/><path d="m618.349-26.9531c-111.926 0-212.351 81.7403-233.764 192.0551-9.455 47.69-4.211 97.134 15.036 141.768 19.247 44.635 51.588 82.349 92.729 108.137 81.35 50.309 187.852 48.295 265.322-8.666 38.206-27.679 67.425-66.025 84.005-110.246 16.581-44.221 19.787-92.358 9.219-138.394-25.714-108.8627-121.557-183.0615-232.407-184.701-14.026 0-14.026 21.92236 0 22.10973 89.578 1.40528 169.058 54.05647 201.784 138.51327 15.223 39.215 18.713 82.024 10.045 123.194-8.669 41.17-29.12 78.918-58.854 108.631-133.666 133.923-370.001 36.584-369.347-153.363.281-118.231 98.181-216.92842 216.465-216.92842 13.979 0 13.979-22.10968-.233-22.10968z" fill="#2fcdb8" fill-opacity=".25"/></svg>